<?xml version="1.0" standalone="no"?>
<!DOCTYPE svg PUBLIC "-//W3C//DTD SVG 20010904//EN"
 "http://www.w3.org/TR/2001/REC-SVG-20010904/DTD/svg10.dtd">
<svg version="1.0" xmlns="http://www.w3.org/2000/svg"
 width="400.000000pt" height="400.000000pt" viewBox="0 0 400.000000 400.000000"
 preserveAspectRatio="xMidYMid meet">

<g transform="translate(0.000000,400.000000) scale(0.100000,-0.100000)"
fill="#FFFFFF" stroke="none">
<path d="M1680 2584 c-173 -135 -316 -247 -318 -249 -2 -2 88 -74 200 -161
112 -86 208 -161 214 -165 7 -6 48 20 112 71 56 44 105 80 111 80 5 0 246
-185 536 -410 290 -226 533 -410 539 -408 7 2 105 75 219 163 l206 160 1 333
c0 320 -1 333 -18 320 -10 -7 -107 -82 -215 -166 l-196 -153 -531 413 c-292
227 -534 414 -538 415 -4 2 -149 -108 -322 -243z"/>
<path d="M500 1998 l1 -333 42 -32 c23 -18 76 -59 117 -91 88 -69 527 -410
1002 -780 l337 -262 216 166 215 167 0 329 c0 180 -3 328 -7 328 -5 0 -100
-72 -213 -160 -112 -88 -207 -160 -211 -160 -4 0 -29 17 -56 38 -73 58 -1309
1020 -1380 1075 l-63 48 0 -333z"/>
</g>
</svg>
